<?xml version="1.0" standalone="no"?>
<!DOCTYPE svg PUBLIC "-//W3C//DTD SVG 20010904//EN"
 "http://www.w3.org/TR/2001/REC-SVG-20010904/DTD/svg10.dtd">
<svg version="1.0" xmlns="http://www.w3.org/2000/svg"
 width="200.000000pt" height="200.000000pt" viewBox="0 0 200.000000 200.000000"
 preserveAspectRatio="xMidYMid meet">
<metadata>
Created by potrace 1.14, written by Peter Selinger 2001-2017
</metadata>
<g transform="translate(0.000000,200.000000) scale(0.100000,-0.100000)"
fill="#000000" stroke="none">
<path d="M0 1774 c0 -193 2 -228 15 -238 14 -10 14 -15 0 -48 -13 -32 -15 -99
-15 -436 l0 -399 48 -80 49 -81 -34 -5 c-51 -9 -63 -23 -62 -76 1 -25 4 -37 6
-26 7 27 30 52 54 58 17 5 19 0 19 -44 0 -37 4 -49 15 -49 8 0 15 3 15 8 0 4
8 17 18 29 17 22 17 21 19 -47 1 -67 0 -70 -33 -99 -18 -17 -52 -35 -74 -41
l-40 -11 0 -95 0 -95 401 2 401 2 25 39 c31 46 40 44 19 -6 l-15 -36 74 0 74
0 -15 35 c-23 56 -16 63 16 15 l29 -45 236 -3 c150 -2 235 0 235 7 0 5 16 30
35 56 25 32 34 52 30 66 -6 19 -3 19 46 13 l52 -7 -7 49 -8 49 34 -32 c24 -23
44 -33 65 -33 57 0 130 -21 176 -50 30 -19 52 -26 71 -23 l26 5 0 949 0 949
-726 0 -725 0 -35 -26 c-19 -15 -34 -21 -34 -16 0 6 12 18 28 26 l27 15 -38 1
c-33 0 -39 -4 -54 -34 -12 -27 -24 -36 -52 -41 -20 -4 -53 -15 -75 -26 -22
-10 -42 -19 -44 -19 -2 0 -2 27 0 60 l3 60 -137 0 -138 0 0 -226z m1394 -357
c15 -31 16 -44 7 -63 -6 -13 -19 -24 -29 -24 -40 0 -73 70 -52 110 18 33 52
22 74 -23z m-986 1 c36 -36 -14 -128 -69 -128 -22 0 -30 6 -35 25 -16 65 63
144 104 103z m476 -14 c31 -30 33 -107 5 -141 -16 -19 -63 -16 -81 5 -60 68
13 199 76 136z m180 -23 c12 -13 16 -32 14 -58 -3 -33 -7 -38 -30 -41 -18 -2
-31 4 -42 20 -42 59 11 131 58 79z m166 -168 c0 -7 -2 -13 -4 -13 -2 0 -11 -3
-20 -6 -12 -5 -16 1 -16 23 0 16 3 33 7 37 9 8 33 -22 33 -41z m-736 -103 c8
-65 58 -175 89 -194 24 -15 30 -3 52 99 15 72 19 82 36 78 22 -6 25 9 5 26 -8
7 -12 21 -9 32 5 17 13 6 38 -47 17 -38 51 -92 73 -121 l42 -52 0 -101 c0
-116 5 -120 80 -70 53 35 66 37 82 10 7 -11 18 -20 25 -20 13 0 19 18 27 89 2
24 14 56 25 70 38 47 81 125 98 178 15 47 20 54 59 67 l42 14 26 -58 c15 -32
34 -88 43 -124 9 -36 19 -66 23 -66 29 0 130 168 130 214 0 16 3 17 12 8 8 -8
14 -53 16 -125 3 -96 0 -126 -23 -207 -14 -52 -28 -106 -32 -120 -3 -14 -12
-33 -20 -42 -14 -15 -17 -15 -46 3 -18 10 -40 19 -49 19 -11 0 -18 8 -18 19 0
29 -17 35 -30 11 -8 -16 -21 -20 -59 -20 -34 0 -51 5 -55 15 -7 20 -23 19 -30
-3 -3 -10 -21 -22 -38 -27 -18 -6 -34 -17 -36 -25 -2 -13 21 -15 157 -15 88 0
163 -3 167 -8 4 -4 -2 -25 -15 -47 -12 -22 -28 -70 -36 -107 -26 -121 -17
-147 33 -100 23 21 24 21 20 2 -4 -25 -108 -77 -195 -99 -65 -17 -147 -21
-141 -8 33 62 40 91 36 144 -2 32 -7 60 -11 64 -6 6 -296 -14 -324 -22 -22 -6
-16 -96 10 -146 l23 -45 -66 4 c-165 12 -329 83 -364 158 -10 20 -16 61 -16
107 -1 45 -8 94 -20 128 -10 30 -17 56 -15 58 2 2 17 -4 34 -12 51 -27 65 -22
57 22 -16 92 -18 209 -3 277 17 81 62 189 75 181 5 -3 12 -33 16 -66z m1298
-310 c66 -19 108 -97 89 -168 -22 -81 -106 -148 -202 -159 -47 -6 -49 -5 -49
19 0 31 59 291 68 300 6 5 20 10 52 17 3 0 22 -4 42 -9z m-727 -381 c11 -35
-4 -105 -30 -133 -22 -24 -28 -25 -110 -22 -63 3 -91 9 -105 21 -20 18 -46
108 -35 125 3 5 34 10 68 11 34 1 87 4 117 9 86 11 88 11 95 -11z m-695 -161
c0 -16 -38 -84 -54 -97 -14 -12 -16 -10 -16 13 0 15 5 47 11 71 10 41 12 43
35 33 13 -6 24 -15 24 -20z m-200 -28 c0 -6 22 -33 50 -60 l49 -50 -37 0 c-63
0 -104 48 -87 101 7 20 25 26 25 9z m770 -15 c14 -17 40 -20 40 -5 0 19 114 6
183 -21 20 -9 27 -18 27 -39 0 -39 -35 -80 -68 -80 -39 0 -132 46 -132 65 0
26 -30 30 -47 6 -21 -31 -72 -25 -92 10 -13 24 -13 29 2 53 20 30 67 36 87 11z
m-154 -3 c7 -4 13 -27 15 -52 l4 -45 -58 -23 c-66 -26 -87 -21 -107 27 -16 39
-6 79 23 91 27 11 108 12 123 2z"/>
<path d="M485 700 c-4 -16 -21 -32 -48 -45 -50 -24 -64 -50 -20 -38 15 4 90 8
166 8 75 -1 137 2 137 6 0 12 -37 39 -53 39 -8 0 -19 9 -22 20 -8 24 -21 26
-29 5 -4 -10 -19 -15 -49 -15 -35 0 -48 5 -60 23 l-15 22 -7 -25z"/>
</g>
</svg>
